<?xml version="1.0" encoding="UTF-8"?>
<svg id="Layer_2" data-name="Layer 2" xmlns="http://www.w3.org/2000/svg" viewBox="0 0 859.65 231.47">
  <defs>
    <style>
      .cls-1 {
        fill: #1a1a19;
      }

      .cls-2 {
        fill: #b1ada3;
      }

      .cls-3 {
        fill: #c34e09;
      }

      .cls-4 {
        fill: #f3efe4;
      }

      .cls-5 {
        fill: #6d3314;
      }
    </style>
  </defs>
  <g id="Layer_1-2" data-name="Layer 1">
    <path class="cls-5" d="M124.16.15c.08.35.08.63,0,.84l-.31,28.67c0,.2.16.36.36.36h0l60.33.03c-.2,0-.31.32-.33.95h-59.99c-.22.01-.39.18-.39.4h0v23.83c0,.2.17.37.37.37h59.88c.22,0,.4-.18.4-.41v-23.12s1.09.32,1.09.32v22.74c-.01.29.23.53.52.53,19.65-.05,39.36-.08,59.12-.07.47,0,.65-.39.54-1.18.1.28.34.44.72.47.03.49.42.73,1.16.73,20.26.03,39.83.05,58.72.06.33,0,.6-.27.6-.6v-23.39c0-.33-.21-.63-.53-.74-.37-.13-.82-.15-1.34-.06.17-.18.38-.29.63-.33.03,0,.04-.04.03-.06,0-.01-.01-.02-.02-.03-.14-.07-.19-.19-.14-.35.4.07.74.06,1.02-.02.32-.09.54-.39.54-.72l.02-1.89c.66.29.94-.56.83-2.55l.13,4.53c0,.28.24.51.52.51h59.11c.3,0,.54-.23.55-.53l.11-3.4c.52.75.79-.21.8-2.89l.14,6.34c0,.26.22.46.48.46l28.63.11c-2.98-.15-4.34.15-4.09.89l-24.36.04c-.31,0-.56.25-.56.56h0v23.5c0,.31.25.56.56.56h58.75c.28,0,.51-.23.51-.51v-23.49c0-.36-.29-.65-.66-.66l-10.33-.1c-1.14-.85-3.05-1.13-5.74-.82l16.11-.17c.3,0,.54-.23.56-.53l.18-3.72c.35.57.68.83,1.01.77-.09,1.08-.02,2.07.21,2.98.08.29.34.49.64.49l49.59.11c-.32.56-.48.92-.48,1.09h-49.39c-.25,0-.46.21-.46.46v23.57c0,.32.26.58.57.58l48.52-.03c-.02.35.09.69.32,1.04l-48.97-.07c-.24,0-.44.2-.44.44h0l-.03,20.32h-1.12v-20.19c.01-.23-.17-.41-.4-.41h-59.15c-.2,0-.37.17-.37.37v20.24c0,.24.19.44.43.44l17.79-.04c-.12.37-.09.72.08,1.03l-17.8.13c-.27,0-.49.22-.49.5h0s-.02,17.09-.02,17.09c-.65-.12-1.03,0-1.12.36l.02-17.34c0-.44-.36-.8-.8-.8-.03,0-.06,0-.1,0-1.47.17-2.85.1-4.14-.23.43-.19.61-.41.54-.68l3.83-.08c.31,0,.56-.26.56-.57v-19.99c0-.25-.21-.46-.46-.46h-59.23c-.23,0-.41.18-.41.41h0l.02,20.47c-.51.22-.89.27-1.15.16l-.03-20.83c0-.15-.13-.28-.28-.28h-59.62c-.24,0-.43.19-.43.43l.03,16.38c-.56-1.83-.88-.66-.95,3.51l-.06-19.77c0-.28-.23-.51-.51-.51h-59.05c-.29,0-.52.23-.52.52l.02,19.58c-.35.24-.73.37-1.16.39l.03-20.04c0-.25-.21-.45-.46-.45h-59.5c-.33,0-.6.27-.6.6h0v19.83c0,.33.26.6.59.6h0l28.92.06c-.05.3.1.63.44,1l-29.3.02c-.44,0-.79.35-.79.79h0l.03,16.85c-.41.06-.8,0-1.17-.16l-.03-16.96c0-.27-.21-.48-.48-.48h0l-17.51.02c.06-.15.13-.29.21-.42.11-.18.04-.41-.14-.52-.03-.01-.05-.03-.08-.04l-.46-.16,17.8-.12c.31,0,.57-.26.57-.57h0v-19.71c0-.33-.27-.6-.6-.6h-58.66c-.27,0-.48.21-.48.48v20.3c-.31.24-.78.33-1.39.26l.04-20.52c0-.25-.2-.46-.45-.46l-9.06-.07s-.01,0-.02-.02l-.16-.6c-.06-.18.05-.37.22-.42.03-.01.07-.02.11-.02h8.75c.38,0,.69-.31.69-.69h0v-23.4c0-.43-.35-.78-.78-.78,0,0,0,0-.01,0l-9.06.12c.25-.35.08-.69-.49-1.02l9,.1c.72.01,1.31-.56,1.32-1.28,0,0,0-.01,0-.02V2.98c0-.55-.45-1-1.01-1h0c-14.86.07-31.31,0-49.34-.22-2.31-.03-5.31-.17-9.01-.43-.71-.05-1.01.41-.91,1.38-.35-.2-.73-.28-1.12-.25C-.04,1.68-.02,1.03.15.5.23.2.51,0,.82,0l123.34.15ZM121.78,1.13c-5.59.86-11.4,1.12-17.41.77-7.8-.45-18.38-.4-31.75.15-2.44.1-5.05-.05-7.82-.44-1.01-.14-1.93.57-2.07,1.57-.01.08-.02.16-.02.25v25.8c0,.3.24.54.54.54h58.71c.36,0,.65-.29.65-.65h0V1.84c0-.4-.32-.72-.72-.72-.04,0-.07,0-.11,0ZM122.45,31.7c0-.43-.35-.78-.78-.78h0l-58.3.2c-.43,0-.78.35-.78.78l.08,23.08c0,.43.35.78.78.78h0l58.3-.2c.43,0,.78-.35.78-.78h0s-.08-23.08-.08-23.08ZM368.21,31.59c0-.3-.24-.54-.54-.54h0l-59-.1c-.3,0-.54.24-.54.54h0s-.04,23.5-.04,23.5c0,.3.24.54.54.54l59,.1c.3,0,.54-.24.54-.54l.04-23.5Z"/>
    <path class="cls-1" d="M859.65,38.7c-.51.15-.81-.89-.88-3.11l-.2-4.06c-.02-.3-.26-.54-.56-.54l-4.96-.13c1.34-.61,3.12-.89,5.33-.86.05-.07.11-.15.2-.24.14-.13.22-.31.22-.5V1.47c0-.26-.21-.47-.47-.47h-59.51c-.3,0-.54.24-.54.54h0v27.91c0,.31.25.56.56.56l12.74-.08.32,1c-.05.07-.1.15-.17.22-.12.13-.18.3-.18.47v23.53c0,.3.24.54.54.54h14.73c1.02.33,2.11.42,3.27.26.03,0,.06,0,.08.02,0,0,.02.01.03.02.01,0,.02.02.01.03,0,.01-.03.02-.04.01-.88-.1-1.66.04-2.35.42l-15.74-.06c-.24,0-.43.19-.43.43v.35c0,.2.17.37.37.37h20.2c.32,0,.58.26.58.58h0v19.06c0,.32.21.61.51.71.58.19,1.17.24,1.78.15.03.22.06.44.09.65-.71-.1-1.29-.05-1.74.14-.31.13-.51.43-.51.76v34.93c0,.43.35.78.78.78h24.29c.45,0,.81-.37.81-.82h0l-.09-27.77c.35.25.64.58.85,1.01l-.05,134.66-.19.41c-.05.09-.16.13-.26.08,0,0-.01,0-.02,0-.06-.05-.14-.11-.23-.18l-.06-31.06c0-.28-.22-.5-.5-.5h-59.35c-.33,0-.6.26-.6.59v38.14c0,.29.24.53.53.53l47.23-.02c.17.42.2.72.09.9H135.58s-1.09-.07-1.09-.07c-.14,0-.27-.1-.28-.24,0-.14.1-.27.25-.28l1.38-.28,48.6-.04c.33.13.7.18,1.13.14l59.69-.11c.24,0,.43-.19.43-.43v-38.22c0-.34-.28-.62-.62-.62-19.45.13-39.07.15-58.87.08-.33,0-.57.15-.7.44-.12.25-.1.53.07.84l-1.09.02c.05-.46-.01-.8-.2-1.03-.07-.09-.18-.14-.29-.14l-56.15-.03c-.33-.5-.42-.88-.27-1.13l25.96.04c.18,0,.33-.15.33-.33,0,0,0,0,0-.01-.09-5.02-.11-10.06-.06-15.13,0-.29-.13-.42-.42-.39l.13-.7c.05-.11.09-.21.12-.31.09-.35-.12-.7-.47-.79-.05-.01-.11-.02-.16-.02l-17.94.07-.03-28.41c0-.34.27-.61.61-.61h17.46c.38,0,.68-.3.68-.67h0v-17.15c0-.31.25-.56.56-.56l30.23-.21.96-.06c.08.07.16.13.23.19.08.07.19.11.3.11h15.96c.3,0,.54-.24.54-.54v-8.01c0-.11-.05-.22-.14-.3-.09-.08-.18-.14-.28-.18l-.07-.88c.17-.03.3-.11.41-.24.09-.11.13-.25.13-.44-.11-5.84-.11-11.6.01-17.29,0-.32-.25-.58-.57-.59,0,0,0,0-.01,0h-16.04c-.13,0-.26.05-.34.15-.13.16-.19.34-.17.55l-1.06-.05c0-.28-.1-.48-.33-.61-.02-.01-.04-.02-.07-.02l-29.32.02c-.3,0-.54.25-.54.55h0c.05,5.63.06,11.4.02,17.3,0,.21.05.37.16.48.13.13.29.18.48.17,0,.37-.08.71-.25,1.02h-30.62c-.14-.01-.26.11-.26.25h0l.02,55.15c-.14.51-.73.68-1.78.49l-16.99.06c-.31,0-.59.21-.68.5-.19.59-.05.88.43.88-.17.21-.34.41-.51.61-.19,7.78-.26,12.92-.2,15.42.02.73.32.97.9.73.16.28.25.54.27.77l-66.74.14-6.37-.2c-.28-.01-.52-.21-.59-.48l-.13-.55c.18.02.27-.12.28-.42.17-4.95.22-9.62.16-14.02-.01-.7-.16-1.17-.44-1.4-.43-.35-.43-.77,0-1.28.27-.33.43-1.04.47-2.13.62-17.3.49-35.25-.4-53.84-.02-.38-.16-.73-.41-1.02-.2-.24-.13-.51.22-.81.18-.15.28-.37.29-.6.25-8.66.35-18.18.28-28.56-.04-7.53.41-18.5-.19-28.11-.04-.67-.59-1.19-1.26-1.19H3.57c-.15,0-.27-.12-.27-.27v-.31c0-.16.13-.29.3-.29h26.76c.75,0,1.36-.61,1.36-1.36h0v-22.77c0-.51-.42-.93-.93-.93H1.89c-.36,0-.65.28-.66.64-.11,9.75-.11,17.76.02,24.03,0,.41.2.64.57.71.07,0,.12.05.12.12,0,.07-.05.12-.12.12-.47.09-.7,1.11-.69,3.05.04,7.52.15,12.36.34,14.53.05.51,0,1.14-.12,1.87-.15.85-.1,1.48.15,1.89.16.25.18.56.06.83-.33.75-.47,1.79-.43,3.11.13,4.33.16,8.64.08,12.94-.04,2.1-.43,2.6-1.17,1.5L.08,2.46c.39-.03.77.05,1.12.25l-.06,26.53c0,.5.41.91.91.91h0l49.1-.25c.57.33.74.67.49,1.02-.49.15-.74.59-.73,1.32.1,7.61-.02,23.22.23,23.48.24.24.26.48.07.72-.15.21-.24.58-.25,1.13-.11,5.87-.14,12.21-.07,19.01,0,.51.09.85.26,1.04.3.33.34.65.13.98-.19.29-.29.75-.3,1.39-.23,10.21.51,19.27,0,30.09-.16,3.41-.19,7.63-.08,12.67.26,11.74-.28,22.88.14,34.51.17,4.67.12,9.72-.13,15.14-.02.29.21.54.5.56.02,0,.04,0,.06,0l9.93-.56c.27-.07.73-.05,1.37.07l40.36-.23c.34,0,.61-.28.61-.62l-.04-55.46c-.24.03-.37-.26-.38-.86.27-.13.41-.27.42-.44.17-5.89.19-11.74.06-17.53,0-.26-.22-.47-.48-.47l-40.51-.13h-1.56l-7.94.34c-.23,0-.42-.19-.42-.42,0-.18.12-.35.29-.4.39-.11.98-.04,1.77.21.81.26,1.68-.19,1.94-1,.05-.15.07-.31.07-.47v-15.17c0-.62-.49-1.14-1.11-1.17l-3.6-.19c-.12,0-.21-.1-.2-.21,0,0,0,0,0-.01h0c0-.13.09-.23.2-.23h0l9.12-.23c.61.07,1.08-.02,1.39-.26l41.37.22.46.16c.2.07.32.28.25.48,0,.03-.02.05-.03.08-.08.13-.15.27-.21.42-.15-.03-.29,0-.44.1-.07.05-.11.13-.11.21v16.96c0,.25.21.46.46.46,0,0,0,0,.01,0l18.1-.31c.37.17.76.22,1.17.16l-.09,18.28c0,.34.27.61.61.61h10c.38,0,.69-.31.69-.69h0v-17.52c0-.34.27-.61.61-.61h17.41c.43,0,.77-.34.77-.77l.06-16.96c-.34-.37-.49-.7-.44-1l30.69.03s.08-.01.12-.03c.17-.11.24-.31.21-.6.43-.02.81-.15,1.16-.39-.09.57.04.85.39.85,5.71.07,11.41.11,17.12.12-.1.34-.1.66,0,.96l-.16,17.29c0,.27.22.49.49.49h17.51c.4,0,.73.32.73.72v17.74c0,.19.15.35.34.35h0l14.43.02v.77h-14.47c-.18.01-.33.16-.33.34v55.33c0,.3.24.54.54.54,1.27,0,4.4-.01,9.41-.03.28,0,.47.05.56.16.25.29.38.44.39.47.03.25.25.44.5.44l9.39-.03c.34,0,.61-.27.61-.61,0,0,0,0,0-.01l-.3-56.6-.04-.81v-36.66c.09-.29.06-.6-.11-.93,2.24.27,3.28.03,3.12-.73.07-4.17.39-5.34.95-3.51l.11,3.78c.01.3.25.53.55.53h59.67c.26.1.64.05,1.15-.17l55.69.22c.07.27-.11.49-.54.68-.72-.11-1.06.35-1.03,1.4.16,5.79.19,11.22.1,16.28,0,.28-.23.51-.52.51h-30.57c-.2,0-.36-.16-.36-.35v-16.85c0-.41-.33-.74-.73-.74h-3.71c-.43,0-.78.35-.78.78v35.21c0,.29.24.53.53.53h42.1c.23,0,.42-.19.42-.43,0,0,0,0,0-.01l-.43-17.97c.09-.36.47-.48,1.12-.36l17.78-.08c.28,0,.5-.22.5-.5l.03-17.14c-.17-.31-.2-.66-.08-1.03l41.31.03c.08,0,.15-.03.21-.08.1-.09.16-.21.18-.36h1.12c.04.14.11.25.2.34.09.07.21.11.38.11,1.71-.04,3.4-.07,5.08-.09.6.64.88,1.04.83,1.2l-.06,17.04c0,.32.26.58.58.58h17.99c.23,0,.42.19.42.42h0s-.1,18.34-.1,18.34c.73-.04,1.11.29,1.12.98-.63-.09-.95.04-.96.39-.14,32.37-.17,50.68-.1,54.92,0,.42.35.76.77.76h8.61c.25,0,.48.11.64.31.13.15.19.22.2.23.27.21.61.33.96.34l12.82.1c.29,0,.52-.23.53-.52,0,0,0,0,0-.01l.05-56.65c-.14-.14-.26-.41-.35-.8.29-.29.43-.6.42-.91-.11-15.04-.11-26.46-.01-34.25,0-.84-.18-1.36-.57-1.57-.18-.13-.21-.41-.1-.82.08.15.23.14.46-.05.11-.09.17-.22.17-.36v-20.27c0-.18-.09-.35-.25-.46-.18-.13-.28-.12-.29.01-.23-.35-.34-.69-.32-1.04.48.12.72.02.73-.29.19-6.07.2-14.16.03-24.29,0-.17.16-.53.48-1.09l9.38.06c.22,0,.39-.17.39-.38h0V1.63c0-.35-.29-.64-.65-.64h-58.96c-.35,0-.64.29-.64.65h0l.04,24.74c-.33.06-.66-.2-1.01-.77l-.03-24.05c0-.31-.26-.56-.57-.56h-58.97c-.28,0-.5.22-.5.49h0s-.11,21.66-.11,21.66c-.01,2.68-.28,3.64-.8,2.89l-.08-24.5c0-.3-.24-.54-.54-.54h-59.11c-.33,0-.59.26-.6.59l-.09,23.34c.11,1.99-.17,2.84-.83,2.55l.02-25.93c0-.3-.24-.55-.54-.55h-59.62c-.29,0-.53.24-.53.53v27.99c0,.31.26.57.58.57h0l58.51.02c-.05.16,0,.28.14.35.02.01.03.05.02.07,0,0-.02.02-.03.02-.25.04-.46.15-.63.33l-57.99-.06c-.33,0-.59.26-.59.59l-.03,23.47c-.38-.03-.62-.19-.72-.47v-22.92c0-.33-.26-.6-.59-.6h0l-39.5.05c-.08-.13-.18-.23-.29-.3-.09-.06-.11-.17-.06-.26.02-.04.06-.06.1-.08l1.01-.26h38.78c.27.01.48-.2.48-.47h0V1.38c0-.22-.17-.39-.39-.39h-59.53c-.22,0-.39.17-.39.39v27.97c0,.31.22.57.52.64.62.14,1.24.15,1.85.02l.09.93c-.57-.1-1.1-.11-1.61-.03-.32.05-.57.3-.64.63-.05.25-.06.54,0,.85l-1.1-.32c.09-.45,0-.81-.26-1.07.02-.63.13-.94.33-.95l-.02-28.75c0-.17-.14-.3-.31-.3h-60.05c.08-.22.08-.5,0-.85l734.34-.03c.54,0,.98.44.99.99l.16,37.59ZM551.92,1.48c0-.27-.21-.48-.48-.48h-59.5c-.27,0-.48.21-.48.48v28.04c0,.27.21.48.48.48h59.5c.27,0,.48-.21.48-.48V1.48ZM568.14,29.91c.25.47.23.83-.04,1.08v24.27c-.01.2.15.36.35.36h3.4c.87.28.38.53-1.45.72-1.47-.29-2.29-.08-2.44.65-.05.25.12.5.37.55.03,0,.06,0,.09,0h19.6c.38,0,.68.3.68.68v19.1c0,.32.26.58.58.58h23.23c.41,0,.74-.33.74-.73v-20.47c-.28-.35-.31-.72-.12-1.09l-.03-24c0-.29-.24-.53-.53-.53l-4.85-.03c.08-.61.25-.98.52-1.11l4.39-.09c.31,0,.56-.26.56-.58V1.54c0-.29-.23-.52-.52-.52h-59.24c-.36,0-.65.29-.65.65h0v27.61c0,.39.31.7.7.7h0l14.66-.07ZM674.5,1.49c0-.26-.21-.47-.47-.47h-59.5c-.26,0-.47.21-.47.47v28c0,.26.21.47.47.47h59.5c.26,0,.47-.21.47-.47h0V1.49ZM736.09,1.44c0-.24-.19-.43-.43-.43h-59.88c-.24,0-.43.19-.43.43v28.12c0,.24.19.43.43.43h59.88c.24,0,.43-.19.43-.43V1.44ZM797.41,1.37c0-.2-.16-.36-.36-.36h-59.72c-.2,0-.36.16-.36.36h0v28.24c0,.2.16.36.36.36h59.72c.2,0,.36-.16.36-.36V1.37ZM676.35,55.72c.11.25.16.56.13.94-.37-.14-.67-.15-.9-.02-.24.13-.36.4-.35.8.04,6.59.05,13.21.02,19.86,0,.33.27.6.6.6l15.22-.1.47,1.03-.3,36.04c0,.23.19.42.42.42h28.21c.23,0,.42-.19.42-.43l-.02-36.02-.69-.22c-.17-.05-.27-.23-.22-.4.01-.05.04-.1.08-.13.05-.06.12-.12.2-.18.44.11.66-.14.66-.75-.03-6.65-.04-13.29-.02-19.94,0-.17-.05-.34-.14-.48-.19-.31-.32-.33-.37-.08l-.04-.9c.36-.13.54-.33.55-.59.08-8.07.07-16-.03-23.77,0-.25-.21-.46-.47-.46h-43.81c-.28,0-.5.22-.51.5-.07,8.01-.07,15.85.02,23.53,0,.59.3.84.87.75ZM620.06,31.5c0-.35-.28-.63-.63-.63h-4.86c-.35,0-.63.29-.63.64l.04,23.5c0,.35.28.63.63.63h4.86c.35,0,.63-.29.63-.64h0l-.04-23.5ZM674.42,31.41c0-.31-.25-.56-.56-.56h-4.72c-.31,0-.56.26-.56.57l.04,23.6c0,.31.25.56.56.56h4.72c.31,0,.56-.26.56-.57l-.04-23.6ZM512.92,77.65l-.03,1.15c-.15.07-.26.16-.35.28-.08.11-.12.26-.12.44.06,8.34.08,17.03.06,26.07,0,.24.2.43.44.43h38.51c.3,0,.55-.25.55-.55h0v-26.14c0-.33-.27-.6-.6-.6l-5.21.05c-.13-.55.18-.89.92-1.02l4.33.1c.33.01.6-.24.61-.56,0,0,0-.01,0-.02v-18.17c0-.28-.23-.51-.52-.51h-38.58c-.26,0-.47.21-.47.47.06,8.26.05,14.27-.02,18.03,0,.38.15.56.48.55ZM753.3,77.75c.02.2.12.33.31.4.21.09.32.18.32.29,0,.14-.09.27-.28.39-.34-.05-.61-.02-.8.07s-.29.33-.29.71c0,11.53,0,23.24,0,35.14,0,.28.22.5.5.5h43.8c.27,0,.48-.21.48-.48v-35.28c0-.31-.24-.55-.54-.56l-4.94-.1c-.8-.19-1.11-.51-.94-.97h5.89c.3.01.55-.24.55-.55v-18.09c0-.34-.27-.61-.61-.61h-43.95c-.17,0-.3.13-.3.3.05,6.27.02,12.44-.08,18.49,0,.47.29.58.88.35ZM800.59,58.99c0-.34-.28-.62-.62-.62h-1.12c-.34,0-.62.28-.62.62v18.34c0,.34.28.62.62.62h1.12c.34,0,.62-.28.62-.62v-18.34ZM556.68,59.58c0-.46-.37-.83-.83-.83h-2.22c-.46,0-.83.38-.83.84l.03,17.56c0,.46.37.83.83.83h2.22c.46,0,.83-.38.83-.84l-.03-17.56ZM646.58,59.48c0-.49-.4-.89-.89-.89h-2.68c-.49,0-.89.4-.89.89v17.52c0,.49.4.89.89.89h2.68c.49,0,.89-.4.89-.89h0v-17.52ZM262.89,78.73c-.33,0-.6.27-.6.6v35.35c0,.33.27.6.6.6h43.02c.33,0,.6-.27.6-.6v-35.51c0-.33-.27-.6-.6-.6h-6.36c-.33,0-.6.27-.6.6h0v16.96c0,.33-.27.6-.6.6h-30.15c-.33,0-.6-.27-.6-.6v-16.8c0-.33-.27-.6-.6-.6h-4.11ZM556.62,79.54c0-.42-.34-.76-.76-.76h-2.3c-.42,0-.76.34-.76.76h0v25.64c0,.42.34.76.76.76h2.3c.42,0,.76-.34.76-.76v-25.64ZM588.65,105.65c0,.27-.21.48-.48.48h-20.02c-.27,0-.48.21-.48.48h0v8.2c0,.27.21.48.48.48h28.96c.27,0,.48-.21.48-.48v-35.51c0-.27-.21-.48-.48-.48h-7.98c-.27,0-.48.21-.48.48v26.35ZM658.1,79.32c0-.26-.21-.47-.47-.47h0l-26.26.05c-.26,0-.47.21-.47.47l.06,35.48c0,.26.21.47.47.47l26.26-.05c.26,0,.47-.21.47-.47h0s-.06-35.48-.06-35.48ZM800.57,79.41c0-.36-.3-.66-.66-.66h-1.02c-.36,0-.66.3-.66.66h0l.06,35.32c0,.36.3.66.66.66h1.02c.36,0,.66-.3.66-.66h0l-.06-35.32ZM429.37,97.2c0-.25-.21-.46-.46-.46h-40.34c-.25,0-.46.21-.46.46h0v17.62c0,.25.21.46.46.46h40.34c.25,0,.46-.21.46-.46v-17.62ZM436.76,97.47c0-.38-.31-.69-.69-.69h-5.1c-.38,0-.69.31-.69.69h0v17.22c0,.38.31.69.69.69h5.1c.38,0,.69-.31.69-.69h0v-17.22ZM204.42,97.84c-.07-.07-.17-.07-.24,0-.04.04-.06.11-.05.17.06.25.16.36.3.33.07-.01.13-.08.12-.15-.01-.16-.06-.28-.13-.35ZM658.21,116.63c0-.25-.21-.46-.46-.46h-26.4c-.25,0-.46.21-.46.46v8.28c0,.25.21.46.46.46h26.4c.25,0,.46-.21.46-.46h0v-8.28ZM832.91,162.12c0,.21-.17.38-.38.38h-20.62c-.21,0-.38.17-.38.38h0v10.06c0,.21.17.38.38.38h46.51c.21,0,.38-.17.38-.38h0v-56.35c0-.21-.17-.38-.38-.38h-25.13c-.21,0-.38.17-.38.38h0v45.53ZM306.5,116.69c0-.27-.21-.48-.48-.48h-43.22c-.27,0-.48.21-.48.48h0v56.12c0,.27.21.48.48.48h43.22c.27,0,.48-.21.48-.48v-56.12ZM365.83,173.23c.07.34.01.65-.18.92l-39.38.02c-.4,0-.73.33-.73.74v14.58c0,.41.33.74.74.74h34.79l2.7.19c.14,0,.24.11.25.23h0c0,.14-.1.24-.23.24l-8.14.19c-35.91.02-71.84.03-107.79.04-1.37,0-1.96.67-1.77,2,.19,1.34.29,2.06.3,2.17.37,10.83.37,22.21,0,34.14-.02.54.41.99.95,1.01.01,0,.02,0,.03,0h59.09c.41,0,.75-.34.75-.75l.04-37.74c0-.06.05-.12.11-.13l.32-.03c.15-.02.3.08.32.24,0,.01,0,.03,0,.04v37.6c0,.43.34.77.77.77h59.17c.3,0,.54-.24.54-.54h0s-.03-31.43-.03-31.43c.32-.61.43-1.25.32-1.92-.01-.07.04-.14.11-.15,0,0,0,0,.01,0,.07-.01.13.03.14.1,0,0,0,.01,0,.02l.24,17.12v16.19c-.01.31.24.57.55.57h58.95c.37,0,.67-.3.67-.67v-37.91c0-.32-.26-.58-.57-.58h0l-54.68-.08c-1.02-.26-1.47-.57-1.35-.93l14.46.07c.29,0,.52-.23.52-.52h0v-16.2c0-.68-.55-1.24-1.24-1.24-.01,0-.02,0-.03,0l-17.19.29c-.22-.07-.47-.24-.75-.52l-.14-28.21.9-.5c-.23.01-.25.08-.06.2.03.02.07.03.11.03l17.88-.07c.27,0,.49-.21.49-.48h0v-17.47c0-.22.17-.39.39-.39h40.84c.2,0,.37-.17.37-.37v-8.25c0-.21-.17-.38-.38-.38h0c-19.59-.09-39.26-.06-59,.11-.31,0-.52.1-.63.29-.12.21-.12.46-.01.74l-1.05.32.04-.79c.01-.35-.27-.65-.62-.66,0,0-.01,0-.02,0h-41.68c-.25,0-.46.21-.46.46h0v56.13c0,.3.24.54.54.54l39.72-.13ZM436.78,116.74c0-.31-.26-.57-.57-.57h-5.36c-.31,0-.57.26-.57.57h0v7.8c0,.31.26.57.57.57h5.36c.31,0,.57-.26.57-.57v-7.8ZM553.39,134.28c-.31,0-.56.25-.56.56v37.87c0,.31.25.56.56.56h26.85c.31,0,.56-.25.56-.56v-18.63c0-.31.25-.56.56-.56h15.65c.31,0,.56-.25.56-.56v-36.16c0-.31-.25-.56-.56-.56h-28.65c-.31,0-.56.25-.56.56v16.92c0,.31-.25.56-.56.56h-13.85ZM719.78,173.3c.29,0,.53-.24.53-.53h0v-56.01c0-.29-.24-.53-.53-.53h-28.02c-.29,0-.53.24-.53.53h0v36.26c0,.29.24.53.53.53h15.88c.29,0,.53.24.53.53v18.69c0,.29.24.53.53.53h11.08ZM797.38,116.6c0-.2-.16-.36-.36-.36h-44.14c-.2,0-.36.16-.36.36v45.22c0,.2.16.36.36.36h44.14c.2,0,.36-.16.36-.36v-45.22ZM800.6,116.76c0-.35-.28-.63-.63-.63h-1.08c-.35,0-.63.28-.63.63h0v44.86c0,.35.28.63.63.63h1.08c.35,0,.63-.28.63-.63h0v-44.86ZM551.78,134.67c0-.32-.26-.58-.58-.58l-38.12.07c-.32,0-.58.26-.58.58h0s.07,38.12.07,38.12c0,.32.26.58.58.58l38.12-.07c.32,0,.58-.26.58-.58h0s-.07-38.12-.07-38.12ZM184.4,172.21l1.22.12,16.74-.05c.17,0,.3-.13.3-.3h0v-27.77c0-.24-.2-.44-.44-.44h-15.95c-.35,0-.67.24-.76.58-.09.33-.06.69.09,1.09h-1.19c.09-.36.12-.67.09-.92-.05-.39-.38-.69-.78-.69h-29.16c-.22,0-.39.18-.39.4h0v27.8c0,.21.17.38.38.38h29.34c.09,0,.18-.02.27-.07.08-.05.16-.09.24-.13ZM429.42,172.09c.52.19.84.22.95.1,2.11.39,4.16.42,6.15.07.21-.03.37-.22.37-.44v-27.45c0-.34-.27-.61-.61-.61h-5.28c-.22,0-.43.11-.55.3-.23.36-.3.82-.19,1.37-.35-.25-.66-.37-.94-.38.31-.69.2-1.03-.32-1.04-18.19-.19-31.64-.26-40.33-.21-.31,0-.57.26-.57.58v27.63c0,.22.17.4.39.4,0,0,0,0,0,0l40.92-.32ZM674.95,154.56c0-.34-.28-.62-.62-.62h-59.84c-.34,0-.62.28-.62.62v18.14c0,.34.28.62.62.62h59.84c.34,0,.62-.28.62-.62v-18.14ZM203.16,173.7c-.1.15-.09.31.02.46l-.22,15.34c0,.31.25.56.56.57,0,0,0,0,.01,0h5.76c.33,0,.6-.26.6-.59h0c-.03-7.79-.08-12.72-.13-14.77,0-.19-.13-.39-.38-.6.05-.14.05-.27-.01-.39.28-.28.37-.59.26-.93-.06-.19-.24-.32-.44-.32h-5.79c-.2,0-.37.13-.43.32-.1.31-.04.61.19.91ZM438.76,173.69l.34.64c-.58-.17-1.08-.19-1.5-.06-.33.11-.56.42-.56.77v14.41c0,.34.28.61.62.61h5.88c.38,0,.68-.3.68-.68l.05-15c.15-.23.15-.66-.02-1.29-2.18-.61-4.35-.7-6.52-.27-.22.04-.36.24-.33.46.02.09.06.18.14.24.3.27.71.32,1.22.17ZM57.18,174.73c0-.53-.42-.96-.95-.97h0l-4.36-.03c-.53,0-.96.42-.97.95h0s-.1,14.54-.1,14.54c0,.53.42.96.95.97h0l4.36.03c.53,0,.96-.42.97-.95h0s.1-14.54.1-14.54ZM306.44,174.62c0-.26-.21-.47-.47-.47h-43.18c-.26,0-.47.21-.47.47h0v15.14c0,.26.21.47.47.47h43.18c.26,0,.47-.21.47-.47v-15.14ZM480.38,174.55c0-.23-.18-.41-.41-.41h-13.32c-.23,0-.41.18-.41.41h0v15.26c0,.23.18.41.41.41h13.32c.23,0,.41-.18.41-.41h0v-15.26ZM674.88,174.63c0-.28-.22-.5-.5-.5h-59.96c-.28,0-.5.22-.5.5v15.08c0,.28.22.5.5.5h59.96c.28,0,.5-.22.5-.5v-15.08ZM858.76,174.52c0-.2-.17-.37-.37-.37h-46.44c-.2,0-.37.17-.37.37v15.34c0,.2.17.37.37.37h46.44c.2,0,.37-.17.37-.37v-15.34ZM243.01,174.62c0-.29-.24-.52-.52-.52h0l-9.6.07c-.29,0-.52.24-.52.52l.1,14.96c0,.29.24.52.52.52h0l9.6-.07c.29,0,.52-.24.52-.52h0l-.1-14.96ZM551.93,174.71c0-.3-.25-.55-.55-.55h-38.42c-.3,0-.55.25-.55.55h0v14.98c0,.3.25.55.55.55h38.42c.3,0,.55-.25.55-.55v-14.98ZM580.77,174.76c0-.35-.28-.63-.63-.63h-26.76c-.35,0-.63.28-.63.63h0v14.84c0,.35.28.63.63.63h26.76c.35,0,.63-.28.63-.63h0v-14.84ZM720.24,174.72c0-.32-.26-.58-.58-.58l-10.92.02c-.32,0-.58.26-.58.58h0s.03,14.92.03,14.92c0,.32.26.58.58.58h0l10.92-.02c.32,0,.58-.26.58-.58h0s-.03-14.92-.03-14.92ZM551.93,191.64c0-.29-.24-.53-.53-.53h-59.46c-.29,0-.53.24-.53.53v38.24c0,.29.24.53.53.53h59.46c.29,0,.53-.24.53-.53v-38.24ZM674.3,230.4c.12,0,.21-.09.21-.21v-38.2c0-.12.09-.21.21-.21h.37c.12,0,.21.09.21.21h0v38.2c0,.12.09.21.21.21h60.4c.12,0,.21-.09.21-.21v-38.83c0-.12-.09-.21-.21-.21h-121.69c-.12,0-.21.09-.21.21v38.83c0,.12.09.21.21.21h60.08ZM490.57,191.7c0-.25-.21-.46-.46-.46h-59.3c-.25,0-.46.21-.46.46h0v38.22c0,.25.21.46.46.46h59.3c.25,0,.46-.21.46-.46h0v-38.22ZM613.12,191.62c0-.27-.21-.48-.48-.48h-59.42c-.27,0-.48.21-.48.48h0v38.3c0,.27.21.48.48.48h59.42c.27,0,.48-.21.48-.48v-38.3ZM797.43,191.76c0-.29-.23-.52-.52-.52h0l-59.38-.1c-.29,0-.52.23-.52.52h0s-.07,38.16-.07,38.16c0,.29.23.52.52.52h0l59.38.1c.29,0,.52-.23.52-.52h0s.07-38.16.07-38.16Z"/>
    <path class="cls-4" d="M184.54,30.05l-60.33-.03c-.2,0-.36-.16-.36-.36h0s.31-28.67.31-28.67h60.05c.17,0,.31.14.31.31h0s.02,28.75.02,28.75Z"/>
    <path class="cls-4" d="M206.42,30.04l-18.68-.03c-.61.13-1.23.12-1.85-.02-.3-.07-.52-.33-.52-.64V1.38c0-.22.17-.39.39-.39h59.53c.22,0,.39.17.39.39v28.19c0,.27-.21.48-.48.48h-38.78Z"/>
    <path class="cls-4" d="M307.16,27.48l-.02,1.89c0,.33-.22.63-.54.72-.28.08-.62.09-1.02.02l-58.51-.02c-.32,0-.58-.26-.58-.57h0V1.53c0-.29.24-.53.53-.53h59.62c.3,0,.54.25.54.55h0s-.02,25.93-.02,25.93Z"/>
    <path class="cls-4" d="M368.41,26.04l-.11,3.4c-.01.3-.25.53-.55.53h-59.11c-.28,0-.51-.23-.52-.51l-.13-4.53.09-23.34c0-.33.27-.59.6-.59h59.11c.3,0,.54.24.54.54l.08,24.5Z"/>
    <path class="cls-4" d="M429.39,25.61l-.18,3.72c-.02.3-.26.53-.56.53l-16.11.17-14.08.03-28.63-.11c-.26,0-.47-.2-.48-.46l-.14-6.34.11-21.66c0-.27.22-.49.5-.49h58.97c.31,0,.57.25.57.56h0l.03,24.05Z"/>
    <path class="cls-4" d="M480.84,29.96l-49.59-.11c-.3,0-.56-.2-.64-.49-.23-.91-.3-1.9-.21-2.98l-.04-24.74c0-.36.29-.65.64-.65h58.96c.36,0,.65.29.65.64v28.01c0,.21-.17.38-.39.38h0l-9.38-.06Z"/>
    <rect class="cls-4" x="491.46" y="1" width="60.46" height="29" rx=".48" ry=".48"/>
    <path class="cls-4" d="M608.24,29.95l-40.1-.04-14.66.07c-.39,0-.7-.31-.7-.7h0V1.67c0-.36.29-.65.65-.65h59.24c.29,0,.52.23.52.52h0v27.74c0,.32-.25.57-.56.58l-4.39.09Z"/>
    <rect class="cls-4" x="614.06" y="1.02" width="60.44" height="28.94" rx=".47" ry=".47"/>
    <rect class="cls-4" x="675.35" y="1.01" width="60.74" height="28.98" rx=".43" ry=".43"/>
    <rect class="cls-4" x="736.97" y="1.01" width="60.44" height="28.96" rx=".36" ry=".36"/>
    <path class="cls-4" d="M858.38,30l-46.8-.07-12.74.08c-.31,0-.56-.25-.56-.56V1.54c0-.3.24-.54.54-.54h59.51c.26,0,.47.21.47.47v27.79c0,.19-.08.37-.22.5-.09.09-.15.17-.2.24Z"/>
    <path class="cls-3" d="M121.78,1.13c.39-.06.76.21.82.6,0,.04,0,.07,0,.11v27.28c0,.36-.29.65-.65.65h-58.71c-.3,0-.54-.24-.54-.54h0V3.43c0-1.02.83-1.84,1.84-1.84.08,0,.17,0,.25.02,2.77.39,5.38.54,7.82.44,13.37-.55,23.95-.6,31.75-.15,6.01.35,11.82.09,17.41-.77Z"/>
    <path class="cls-3" d="M51.15,29.9l-49.1.25c-.5,0-.91-.41-.91-.91h0l.06-26.53c-.1-.97.2-1.43.91-1.38,3.7.26,6.7.4,9.01.43,18.03.22,34.48.29,49.34.22.56,0,1.01.45,1.01,1h0v25.72c0,.72-.58,1.3-1.3,1.3,0,0-.01,0-.02,0l-9-.1Z"/>
    <path class="cls-5" d="M608.24,29.95c-.27.13-.44.5-.52,1.11l-39.62-.07c.27-.25.29-.61.04-1.08l40.1.04Z"/>
    <path class="cls-5" d="M858.38,30c-2.21-.03-3.99.25-5.33.86l-41.15.07-.32-1,46.8.07Z"/>
    <path class="cls-5" d="M206.42,30.04l-1.01.26c-.1.03-.15.14-.12.24.01.04.04.08.08.1.11.07.21.17.29.3h-17.83l-.09-.93,18.68.03Z"/>
    <path class="cls-1" d="M412.54,30.03c2.69-.31,4.6-.03,5.74.82l-23.91.1c-.25-.74,1.11-1.04,4.09-.89l14.08-.03Z"/>
    <path class="cls-3" d="M31.33,190.08l-29.25.22c-.45,0-.81-.36-.81-.81v-14.32c0-.46.37-.83.83-.83h26.27c.15,0,.27-.12.27-.26h0v-.37c0-.28-.22-.5-.5-.5H2.06c-.35,0-.64-.29-.64-.64.18-16.69.11-34.66-.2-53.9-.03-1.84.56-2.73,1.77-2.67l25.48-.03c.14,0,.25-.11.25-.25v-.27s-.03-.06-.07-.06H3.14s-.81.02-.81.02c-.51.02-.95-.38-.97-.9,0-.01,0-.02,0-.03l-.15-19.87c.08-4.3.05-8.61-.08-12.94-.04-1.32.1-2.36.43-3.11.12-.27.1-.58-.06-.83-.25-.41-.3-1.04-.15-1.89.13-.73.17-1.36.12-1.87-.19-2.17-.3-7.01-.34-14.53,0-1.94.22-2.96.69-3.05.07,0,.12-.05.12-.12,0-.07-.05-.12-.12-.12-.37-.07-.56-.3-.57-.71-.13-6.27-.13-14.28-.02-24.03,0-.36.3-.64.66-.64h28.9c.51,0,.93.42.93.93v22.77c0,.75-.61,1.36-1.36,1.36H3.6c-.17,0-.3.13-.3.29h0v.31c0,.15.12.27.27.27h26.76c.67,0,1.22.52,1.26,1.19.6,9.61.15,20.58.19,28.11.07,10.38-.03,19.9-.28,28.56,0,.23-.11.45-.29.6-.35.3-.42.57-.22.81.25.29.39.64.41,1.02.89,18.59,1.02,36.54.4,53.84-.04,1.09-.2,1.8-.47,2.13-.43.51-.43.93,0,1.28.28.23.43.7.44,1.4.06,4.4,0,9.07-.16,14.02,0,.3-.1.44-.28.42ZM24.33,78.16c0-.46-4.94-.81-11.02-.76-6.08.04-11.01.45-11,.92h0c0,.46,4.94.81,11.02.76,6.08-.04,11.01-.45,11-.92h0Z"/>
    <path class="cls-3" d="M61.37,77.78l-9.12.23c-.11,0-.2.1-.2.22h0c-.01.12.07.22.19.23,0,0,0,0,.01,0l3.6.19c.62.03,1.11.55,1.11,1.17v15.17c0,.85-.69,1.54-1.54,1.54-.16,0-.32-.02-.47-.07-.79-.25-1.38-.32-1.77-.21-.22.07-.34.31-.27.53.06.17.22.29.4.29l7.94-.34.21,17.77c0,.42-.34.76-.75.76h-8.81c-.18,0-.32.14-.32.32v.39c0,.15.12.27.27.27h8.74c.51,0,.93.42.93.93,0,0,0,0,0,.01l-.12,55.22-9.93.56c-.29.02-.54-.21-.56-.5,0-.02,0-.04,0-.06.25-5.42.3-10.47.13-15.14-.42-11.63.12-22.77-.14-34.51-.11-5.04-.08-9.26.08-12.67.51-10.82-.23-19.88,0-30.09.01-.64.11-1.1.3-1.39.21-.33.17-.65-.13-.98-.17-.19-.25-.53-.26-1.04-.07-6.8-.04-13.14.07-19.01.01-.55.1-.92.25-1.13.19-.24.17-.48-.07-.72-.25-.26-.13-15.87-.23-23.48,0-.73.24-1.17.73-1.32l9.06-.12c.43,0,.78.34.79.77,0,0,0,0,0,.01v23.4c0,.38-.31.69-.69.69h-8.75c-.19,0-.34.15-.35.33,0,.04,0,.07.02.11l.16.6s.02.02.02.02l9.06.07c.25,0,.45.21.45.46l-.04,20.52Z"/>
    <path class="cls-4" d="M245.75,54.41c.11.79-.07,1.19-.54,1.18-19.76,0-39.47.02-59.12.07-.29,0-.53-.24-.53-.53v-22.74c-.04-.31-.03-.6.02-.85.07-.33.32-.58.64-.63.51-.08,1.04-.07,1.61.03h17.83l39.5-.05c.33,0,.59.27.59.6h0v22.92Z"/>
    <path class="cls-4" d="M305.08,30.88c.52-.09.97-.07,1.34.06.32.11.53.41.53.74v23.39c0,.33-.27.6-.6.6-18.89,0-38.46-.03-58.72-.06-.74,0-1.13-.24-1.16-.73l.03-23.47c0-.33.26-.59.59-.59l57.99.06Z"/>
    <path class="cls-4" d="M719.73,55.76l-43.38-.04c-.57.09-.86-.16-.87-.75-.09-7.68-.09-15.52-.02-23.53,0-.28.23-.5.51-.5h43.81c.26,0,.47.21.47.46h0c.1,7.77.11,15.7.03,23.77,0,.26-.19.46-.55.59Z"/>
    <rect class="cls-3" x="62.64" y="31.02" width="59.86" height="24.64" rx=".78" ry=".78" transform="translate(-.15 .32) rotate(-.2)"/>
    <path class="cls-4" d="M184.21,31c.26.26.35.62.26,1.07v23.12c0,.23-.17.41-.39.41h-59.88c-.2,0-.37-.17-.37-.37v-23.83c0-.22.17-.39.39-.39h59.99Z"/>
    <rect class="cls-4" x="325.86" y="13.25" width="24.58" height="60.08" rx=".54" ry=".54" transform="translate(294.27 381.36) rotate(-89.9)"/>
    <path class="cls-4" d="M394.37,30.95l23.91-.1,10.33.1c.37,0,.66.3.66.66v23.49c0,.28-.23.51-.51.51h-58.75c-.31,0-.56-.25-.56-.56h0v-23.5c0-.31.25-.56.56-.56h0l24.36-.04Z"/>
    <path class="cls-4" d="M480.36,31.05c.17,10.13.16,18.22-.03,24.29,0,.31-.25.41-.73.29l-48.52.03c-.31,0-.57-.26-.57-.58v-23.57c0-.25.21-.46.46-.46h49.39Z"/>
    <path class="cls-4" d="M607.72,31.06l4.85.03c.29,0,.53.24.53.53l.03,24h-41.28s-3.4,0-3.4,0c-.2,0-.36-.16-.36-.36h0s.01-24.27.01-24.27l39.62.07Z"/>
    <rect class="cls-4" x="613.97" y="30.88" width="6.12" height="24.76" rx=".63" ry=".63" transform="translate(-.07 1.08) rotate(-.1)"/>
    <rect class="cls-4" x="668.61" y="30.86" width="5.84" height="24.72" rx=".56" ry=".56" transform="translate(-.07 1.17) rotate(-.1)"/>
    <path class="cls-4" d="M811.9,30.93l41.15-.07,4.96.13c.3,0,.54.24.56.54l.2,4.06v19.47c-.01.34-.29.61-.63.61h-31.32s-14.73.02-14.73.02c-.3,0-.54-.24-.54-.54v-23.53c0-.17.06-.34.18-.47.07-.07.12-.15.17-.22Z"/>
    <path class="cls-5" d="M858.77,35.59c.07,2.22.37,3.26.88,3.11l-.08,49.02c-.21-.43-.5-.76-.85-1.01l.02-7.29c0-.43-.33-.77-.76-.78,0,0,0,0-.01,0l-22.79.05c-.03-.21-.06-.43-.09-.65l22.6-.09c.6,0,1.08-.49,1.08-1.09v-19.55c0-.33-.27-.6-.61-.61l-30.34-.25c.69-.38,1.47-.52,2.35-.42.01,0,.03,0,.04-.01,0-.01,0-.02-.01-.03-.01,0-.02-.01-.03-.02-.02-.01-.05-.02-.08-.02-1.16.16-2.25.07-3.27-.27h31.32c.34-.01.62-.28.62-.62v-19.47Z"/>
    <path class="cls-5" d="M719.73,55.76l.04.9h-43.29c.03-.38-.02-.69-.13-.94l43.38.04Z"/>
    <path class="cls-5" d="M613.13,55.62c-.19.37-.16.74.11,1.09l-42.84-.37c1.83-.19,2.32-.44,1.45-.73h41.28Z"/>
    <path class="cls-4" d="M570.4,56.34l42.84.37v20.47c.01.4-.32.73-.73.73h-23.23c-.32,0-.58-.26-.58-.58v-19.1c0-.38-.3-.68-.68-.68h-19.6c-.26,0-.47-.21-.47-.47,0-.03,0-.06,0-.09.15-.73.97-.94,2.44-.65Z"/>
    <path class="cls-3" d="M104.13,77.74l-41.37-.22v-20.3c0-.27.21-.48.48-.48h58.66c.33,0,.6.27.6.6h0v19.71c0,.31-.26.57-.57.57h0l-17.8.12Z"/>
    <path class="cls-4" d="M676.48,56.66h43.29c.05-.25.18-.23.37.08.09.14.14.31.14.48-.02,6.65-.01,13.29.02,19.94,0,.61-.22.86-.66.75l-28.57-.11-15.22.1c-.33,0-.6-.27-.6-.6.03-6.65.02-13.27-.02-19.86,0-.4.11-.67.35-.8.23-.13.53-.12.9.02Z"/>
    <path class="cls-4" d="M827.82,56.45l30.34.25c.34,0,.61.28.61.61v19.55c0,.6-.48,1.08-1.08,1.09l-22.6.09c-.61.09-1.2.04-1.78-.15-.3-.1-.51-.39-.51-.71v-19.06c0-.32-.26-.58-.58-.58h-20.2c-.2,0-.37-.17-.37-.37v-.35c0-.24.19-.43.43-.43l15.74.06Z"/>
    <path class="cls-4" d="M184.43,77.2c.03.29-.04.49-.21.6-.04.02-.08.03-.12.03l-30.69-.03-28.92-.06c-.33,0-.59-.27-.59-.6h0v-19.83c0-.33.27-.6.6-.6h59.5c.25,0,.46.2.46.45l-.03,20.04Z"/>
    <path class="cls-4" d="M245.71,76.99c.16.76-.88,1-3.12.73l-39.49.06c-5.71-.01-11.41-.05-17.12-.12-.35,0-.48-.28-.39-.85l-.02-19.58c0-.29.23-.52.52-.52h59.05c.28,0,.51.23.51.51l.06,19.77Z"/>
    <path class="cls-4" d="M306.99,77.78h-59.67c-.3.01-.54-.22-.55-.52l-.11-3.78-.03-16.38c0-.24.19-.43.43-.43h59.62c.15,0,.28.13.28.28l.03,20.83Z"/>
    <path class="cls-4" d="M363.83,77.84l-55.69-.22-.02-20.47c0-.23.18-.41.41-.41h59.23c.25,0,.46.21.46.46v19.99c0,.31-.25.56-.56.57l-3.83.08Z"/>
    <path class="cls-4" d="M429.36,77.36c-.02.15-.08.27-.18.36-.06.05-.13.08-.21.08l-41.31-.03-17.79.04c-.24,0-.43-.2-.43-.44v-20.24c0-.2.17-.37.37-.37h59.15c.23,0,.41.18.41.41h0v20.19Z"/>
    <path class="cls-4" d="M479.92,56.67c.01-.13.11-.14.29-.01.16.11.25.28.25.46v20.27c0,.14-.06.27-.17.36-.23.19-.38.2-.46.05l-43.69-.08c-1.68.02-3.37.05-5.08.09-.17,0-.29-.04-.38-.11-.09-.09-.16-.2-.2-.34l.03-20.32c0-.24.2-.44.44-.44h0l48.97.07Z"/>
    <path class="cls-4" d="M547.09,77.76l-34.17-.11c-.33.01-.49-.17-.48-.55.07-3.76.08-9.77.02-18.03,0-.26.21-.47.47-.47h38.58c.29,0,.52.23.52.51v18.17c0,.32-.26.58-.59.58,0,0-.01,0-.02,0l-4.33-.1Z"/>
    <path class="cls-4" d="M790.92,77.86l-37.62-.11c-.59.23-.89.12-.88-.35.1-6.05.13-12.22.08-18.49,0-.17.13-.3.3-.3h43.95c.34,0,.61.27.61.61v18.09c0,.31-.25.56-.55.56h-5.89Z"/>
    <rect class="cls-4" x="798.23" y="58.37" width="2.36" height="19.58" rx=".62" ry=".62"/>
    <rect class="cls-4" x="552.82" y="58.75" width="3.88" height="19.22" rx=".83" ry=".83" transform="translate(-.12 .97) rotate(-.1)"/>
    <rect class="cls-4" x="642.12" y="58.59" width="4.46" height="19.3" rx=".89" ry=".89"/>
    <ellipse class="cls-1" cx="13.32" cy="78.24" rx="11.01" ry=".84" transform="translate(-.55 .09) rotate(-.4)"/>
    <path class="cls-5" d="M242.59,77.72c.17.33.2.64.11.93l-39.6.09c-.1-.3-.1-.62,0-.96l39.49-.06Z"/>
    <path class="cls-5" d="M479.83,77.8c-.11.41-.08.69.1.82l-42.96.3c.05-.16-.23-.56-.83-1.2l43.69.08Z"/>
    <path class="cls-5" d="M547.09,77.76c-.74.13-1.05.47-.92,1.02l-33.28.02.03-1.15,34.17.11Z"/>
    <path class="cls-5" d="M719.64,77.91c-.08.06-.15.12-.2.18-.12.13-.12.33,0,.45.04.04.08.06.13.08l.69.22h-28.73s-.47-1.04-.47-1.04l28.57.11Z"/>
    <path class="cls-5" d="M790.92,77.86c-.17.46.14.78.94.97h-38.21c.19-.12.28-.25.28-.39,0-.11-.11-.2-.32-.29-.19-.07-.29-.2-.31-.4l37.62.11Z"/>
    <path class="cls-4" d="M262.89,78.73h4.11c.33,0,.6.27.6.6h0v16.8c0,.33.27.6.6.6h30.15c.33,0,.6-.27.6-.6v-16.96c0-.33.27-.6.6-.6h6.36c.33,0,.6.27.6.6h0v35.51c0,.33-.27.6-.6.6h-43.02c-.33,0-.6-.27-.6-.6v-35.35c0-.33.27-.6.6-.6Z"/>
    <path class="cls-4" d="M363.29,78.52c1.29.33,2.67.4,4.14.23.44-.06.84.26.89.69,0,.03,0,.06,0,.1l-.02,17.34.43,17.97c0,.24-.18.43-.41.44,0,0,0,0-.01,0h-42.1c-.29,0-.53-.24-.53-.53v-35.21c0-.43.35-.78.78-.78h3.71c.4,0,.73.33.73.74h0v16.85c0,.19.16.35.36.35h30.57c.29,0,.52-.23.52-.51.09-5.06.06-10.49-.1-16.28-.03-1.05.31-1.51,1.03-1.4Z"/>
    <path class="cls-4" d="M835.18,78.69l22.79-.05c.43,0,.77.34.77.77,0,0,0,0,0,.01l-.02,7.29.09,27.77c0,.45-.36.82-.81.82h-24.29c-.43,0-.78-.35-.78-.78h0v-34.93c0-.33.2-.63.51-.76.45-.19,1.03-.24,1.74-.14Z"/>
    <path class="cls-3" d="M104.6,78.88l17.51-.02c.27,0,.48.21.48.48h0l.03,16.96-18.1.31c-.25,0-.46-.2-.47-.45,0,0,0,0,0-.01v-16.96c0-.08.04-.16.11-.21.15-.1.29-.13.44-.1Z"/>
    <path class="cls-4" d="M153.85,78.8l-.06,16.96c0,.43-.34.77-.77.77h-17.41c-.34,0-.61.27-.61.61h0v17.52c0,.38-.31.69-.69.69h-10c-.34,0-.61-.27-.61-.61l.09-18.28-.03-16.85c0-.44.35-.79.79-.79h0l29.3-.02Z"/>
    <path class="cls-4" d="M203.1,78.74l39.6-.09v36.66l-6.26.04-14.43-.02c-.19,0-.34-.16-.34-.35h0v-17.74c0-.4-.33-.72-.73-.72h-17.51c-.27,0-.49-.22-.49-.49h0l.16-17.29Z"/>
    <path class="cls-4" d="M387.74,78.8l-.03,17.14c0,.28-.22.5-.5.5l-17.78.08.02-17.09c0-.28.22-.5.49-.5h0l17.8-.13Z"/>
    <path class="cls-4" d="M479.93,78.62c.39.21.58.73.57,1.57-.1,7.79-.1,19.21.01,34.25,0,.31-.13.62-.42.91l-24.29-.05.1-18.34c0-.23-.19-.42-.42-.42h-17.99c-.32,0-.58-.26-.58-.58h0l.06-17.04,42.96-.3Z"/>
    <path class="cls-4" d="M512.89,78.8l33.28-.02,5.21-.05c.33,0,.6.27.6.6v26.14c0,.3-.25.55-.55.55h-38.51c-.24,0-.44-.19-.44-.43.02-9.04,0-17.73-.06-26.07,0-.18.04-.33.12-.44.09-.12.2-.21.35-.28Z"/>
    <rect class="cls-4" x="552.8" y="78.78" width="3.82" height="27.16" rx=".76" ry=".76"/>
    <path class="cls-4" d="M588.65,105.65v-26.35c0-.27.21-.48.48-.48h7.98c.27,0,.48.21.48.48v35.51c0,.27-.21.48-.48.48h-28.96c-.27,0-.48-.21-.48-.48h0v-8.2c0-.27.21-.48.48-.48h20.02c.27,0,.48-.21.48-.48h0Z"/>
    <rect class="cls-4" x="630.94" y="78.87" width="27.2" height="36.42" rx=".47" ry=".47" transform="translate(-.17 1.13) rotate(-.1)"/>
    <path class="cls-4" d="M720.27,78.84l.02,36.02c0,.24-.19.43-.42.43h-28.21c-.23,0-.42-.19-.42-.42l.3-36.04h28.73Z"/>
    <path class="cls-4" d="M791.86,78.83l4.94.1c.3,0,.54.25.54.56v35.28c0,.27-.21.48-.48.48h-43.8c-.28,0-.5-.22-.5-.5,0-11.9,0-23.61,0-35.14,0-.38.1-.62.29-.71s.46-.12.8-.07h38.21Z"/>
    <rect class="cls-4" x="798.27" y="78.75" width="2.34" height="36.64" rx=".66" ry=".66" transform="translate(-.17 1.4) rotate(-.1)"/>
    <path class="cls-5" d="M3.14,115.38c-.25.05-.3.25-.15.62-1.21-.06-1.8.83-1.77,2.67.31,19.24.38,37.21.2,53.9,0,.35.29.64.64.64h26.08c.28,0,.5.22.5.5v.37c0,.14-.12.26-.27.26H2.1c-.46,0-.83.37-.83.83h0v14.32c0,.45.36.81.81.81l29.25-.22.13.55c.07.27.31.47.59.48l6.37.2-36.19.08c-.48,0-.87.39-.87.87h0v35.86c0,.95.77,1.72,1.71,1.72.05,0,.1,0,.16,0,5.04-.45,9.11-.59,12.2-.42,6.52.36,10.51.52,11.98.47,10.13-.33,21.05-.35,32.78-.05.94.02,1.72-.73,1.74-1.67,0-.05,0-.1,0-.14-.72-11.08-.87-22.86-.45-35.34.01-.26.22-.47.48-.48l.29.1c.25.09.41.32.41.59v34.38c0,.16.07.31.19.42,1.58,1.39,3.43,2.04,5.54,1.95,10.12-.4,18.44,0,28.18-.12,10.18-.13,16.93.41,23.89-.03,1.18-.07,2.09-1.05,2.09-2.23v-35.17c0-.36-.29-.65-.65-.66l-16.74-.26c-.02-.23-.11-.49-.27-.77l16.97-.47c.31-.01.55-.26.55-.57v-14.02c0-.32-.25-.58-.57-.59l-17.65-.5c.17-.2.34-.4.51-.61,5.67.14,11.28.03,16.84-.32.47-.03.61-.4.4-1.12,1.05.19,1.64.02,1.78-.49,0,.43.04.78.14,1.07.11.31.41.52.74.51l8.74-.18c6.71.73,13.43.9,20.17.53l-.13.7h-28.87c-.33-.01-.59.25-.59.58h0v14.68c0,.31.24.55.55.56h3.1c-.15.25-.06.63.27,1.13l-3.4.1c-.31,0-.55.25-.55.56v37.86c0,.32.26.58.58.58h11.37l-1.38.28c-.14,0-.25.13-.25.28,0,.14.13.25.28.24l1.09.08-57.16.06-61.45-.06H.98c-.51.01-.92-.4-.92-.91l-.02-134.25c.74,1.1,1.13.6,1.17-1.5l.15,19.87c0,.52.43.94.94.93.01,0,.02,0,.03,0l.81-.03Z"/>
    <path class="cls-5" d="M62.81,96.73l-.07,18.01c0,.22.18.4.4.41l40.18.15c.01.6.14.89.38.86l-40.43.23c-.29,0-.52.23-.52.52h0l.02,55.56c-.64-.12-1.1-.14-1.37-.07l.12-55.22c0-.51-.41-.93-.92-.94,0,0,0,0-.01,0h-8.74c-.15,0-.27-.12-.27-.27h0v-.39c0-.18.14-.32.32-.32h8.81c.41,0,.75-.34.75-.76h0l-.21-17.77h1.56Z"/>
    <path class="cls-3" d="M103.32,115.3l-40.18-.15c-.22,0-.4-.19-.4-.41l.07-18.01,40.51.13c.26,0,.47.21.48.47.13,5.79.11,11.64-.06,17.53,0,.17-.15.31-.42.44Z"/>
    <path class="cls-4" d="M184.43,97.4l.02,17.25c0,.34-.28.62-.62.62l-29,.02c-.19.01-.35-.04-.48-.17-.11-.11-.16-.27-.16-.48.04-5.9.03-11.67-.02-17.3,0-.3.24-.55.54-.55h0l29.32-.02s.05,0,.07.02c.23.13.34.33.33.61Z"/>
    <path class="cls-4" d="M202.07,115.31h-15.94c-.36,0-.65-.29-.65-.65h0s.01-17.21.01-17.21c-.02-.21.04-.39.17-.55.08-.1.21-.15.34-.15h16.04c.32,0,.58.26.58.58,0,0,0,0,0,.01-.12,5.69-.12,11.45-.01,17.29,0,.19-.04.33-.13.44-.11.13-.24.21-.41.24Z"/>
    <rect class="cls-4" x="388.11" y="96.74" width="41.26" height="18.54" rx=".46" ry=".46"/>
    <rect class="cls-4" x="430.28" y="96.78" width="6.48" height="18.6" rx=".69" ry=".69"/>
    <path class="cls-5" d="M185.49,97.45v17.21c-.01.36.28.65.64.65h15.94l.07.88-16.11.06c-.29,0-.52.23-.52.51l.02,8.16-.96.06-.18-8.08c0-.28-.23-.5-.51-.5l-29.3-.09c.17-.31.26-.65.25-1.02l29-.02c.34,0,.62-.28.62-.62l-.02-17.25,1.06.05Z"/>
    <path class="cls-5" d="M204.42,97.84c.07.07.12.19.13.35,0,.07-.05.14-.12.15-.14.03-.24-.08-.3-.33-.02-.1.04-.19.13-.22.06-.01.12,0,.16.05Z"/>
    <path class="cls-1" d="M2.99,116c-.15-.37-.1-.57.15-.62h25.51s.07.04.07.07v.27c0,.14-.11.25-.25.25l-25.48.03Z"/>
    <path class="cls-2" d="M242.7,115.31l.04.81h-6.3v-.77l6.26-.04Z"/>
    <path class="cls-5" d="M480.09,115.35c.09.39.21.66.35.8l-23.52.13c-.01-.69-.39-1.02-1.12-.98l24.29.05Z"/>
    <path class="cls-3" d="M103.7,116.16l.04,55.46c0,.34-.27.61-.61.62l-40.36.23-.02-55.56c0-.29.23-.52.52-.52h0l40.43-.23Z"/>
    <path class="cls-4" d="M242.74,116.12l.3,56.6c0,.34-.26.61-.6.62,0,0,0,0-.01,0l-9.39.03c-.25,0-.47-.19-.5-.44,0-.03-.14-.18-.39-.47-.09-.11-.28-.16-.56-.16-5.01.02-8.14.03-9.41.03-.3,0-.54-.24-.54-.54v-55.33c0-.18.15-.33.33-.33h14.47s6.3-.01,6.3-.01Z"/>
    <rect class="cls-4" x="630.89" y="116.17" width="27.32" height="9.2" rx=".46" ry=".46"/>
    <path class="cls-4" d="M832.91,162.12v-45.53c0-.21.17-.38.38-.38h25.13c.21,0,.38.17.38.38h0v56.35c0,.21-.17.38-.38.38h-46.51c-.21,0-.38-.17-.38-.38h0v-10.06c0-.21.17-.38.38-.38h20.62c.21,0,.38-.17.38-.38h0Z"/>
    <path class="cls-4" d="M154.58,116.31l29.3.09c.28,0,.5.22.51.5l.18,8.08-30.23.21c-.31,0-.56.25-.56.56v17.15c0,.37-.3.67-.68.67h-17.46c-.34,0-.61.27-.61.61l.03,28.41c.92.13.35.3-1.72.52l-8.74.18c-.33,0-.63-.2-.74-.51-.1-.29-.15-.64-.14-1.07l-.02-55.15c0-.14.12-.26.26-.26h30.62Z"/>
    <path class="cls-4" d="M202.14,116.19c.1.04.19.1.28.18.09.08.14.19.14.3v8.01c0,.3-.24.54-.54.54h-15.96c-.11,0-.22-.04-.3-.11-.07-.06-.15-.12-.23-.19l-.02-8.16c0-.28.23-.51.52-.51l16.11-.06Z"/>
    <rect class="cls-4" x="262.32" y="116.21" width="44.18" height="57.08" rx=".48" ry=".48"/>
    <path class="cls-4" d="M368.31,117.68l.15,26.22.14,28.21c.12.62-.05.96-.51,1.01-.75.08-1.5.12-2.26.11l-39.72.13c-.3,0-.54-.24-.54-.54v-56.13c0-.25.21-.46.46-.46h41.68c.35,0,.64.29.64.64,0,0,0,.01,0,.02l-.04.79Z"/>
    <path class="cls-4" d="M369.36,143.4v-26.04c-.11-.28-.11-.53.01-.74.11-.19.32-.29.63-.29,19.74-.17,39.41-.2,59-.11.21,0,.38.17.38.38h0v8.25c0,.2-.17.37-.37.37h-40.84c-.22,0-.39.17-.39.39v17.47c0,.27-.22.48-.49.48h0l-17.88.07s-.08-.01-.11-.03c-.19-.12-.17-.19.06-.2Z"/>
    <rect class="cls-4" x="430.28" y="116.17" width="6.5" height="8.94" rx=".57" ry=".57"/>
    <path class="cls-4" d="M456.92,116.28l23.52-.13-.05,56.65c0,.29-.23.53-.52.53,0,0,0,0,0,0l-12.82-.1c-.35,0-.69-.13-.96-.34,0,0-.07-.08-.2-.23-.16-.2-.39-.31-.64-.31h-8.61c-.42,0-.76-.34-.77-.76-.07-4.24-.04-22.55.1-54.92,0-.35.33-.48.96-.39Z"/>
    <path class="cls-4" d="M553.39,134.28h13.85c.31,0,.56-.25.56-.56v-16.92c0-.31.25-.56.56-.56h28.65c.31,0,.56.25.56.56v36.16c0,.31-.25.56-.56.56h-15.65c-.31,0-.56.25-.56.56v18.63c0,.31-.25.56-.56.56h-26.85c-.31,0-.56-.25-.56-.56v-37.87c0-.31.25-.56.56-.56Z"/>
    <path class="cls-4" d="M719.78,173.3h-11.08c-.29,0-.53-.24-.53-.53h0v-18.69c0-.29-.24-.53-.53-.53h-15.88c-.29,0-.53-.24-.53-.53h0v-36.26c0-.29.24-.53.53-.53h28.02c.29,0,.53.24.53.53h0v56.01c0,.29-.24.53-.53.53h0Z"/>
    <rect class="cls-4" x="752.52" y="116.24" width="44.86" height="45.94" rx=".36" ry=".36"/>
    <rect class="cls-4" x="798.26" y="116.13" width="2.34" height="46.12" rx=".63" ry=".63"/>
    <path class="cls-5" d="M369.36,117.36v26.04l-.9.5-.15-26.22,1.05-.32Z"/>
    <rect class="cls-4" x="512.54" y="134.12" width="39.28" height="39.28" rx=".58" ry=".58" transform="translate(-.27 .93) rotate(-.1)"/>
    <path class="cls-4" d="M184.41,145.45v26.76c-.09.04-.17.08-.25.13-.09.05-.18.07-.27.07h-29.34c-.21,0-.38-.17-.38-.38v-27.8c0-.22.17-.4.39-.4h29.16c.4,0,.73.3.78.69.03.25,0,.56-.09.93Z"/>
    <path class="cls-4" d="M185.62,172.33l-.02-26.89c-.15-.4-.18-.76-.09-1.09.09-.34.41-.58.76-.58h15.95c.24,0,.44.2.44.44h0v27.77c0,.17-.13.3-.3.3h0l-16.74.05Z"/>
    <path class="cls-4" d="M429.32,145.05l.1,27.04-40.92.32c-.22,0-.39-.17-.4-.39,0,0,0,0,0-.01v-27.63c0-.32.26-.58.57-.58,8.69-.05,22.14.02,40.33.21.52,0,.63.35.32,1.04Z"/>
    <path class="cls-4" d="M430.37,172.19l-.11-26.76c-.11-.55-.04-1.01.19-1.37.12-.19.33-.3.55-.3h5.28c.34,0,.61.27.61.61h0v27.45c0,.22-.16.41-.37.44-1.99.35-4.04.32-6.15-.07Z"/>
    <path class="cls-5" d="M430.26,145.43l.11,26.76c-.11.12-.43.09-.95-.1l-.1-27.04c.28,0,.59.13.94.38Z"/>
    <path class="cls-5" d="M185.6,145.44l.02,26.89-1.22-.12v-26.76s1.2-.01,1.2-.01Z"/>
    <rect class="cls-4" x="613.87" y="153.94" width="61.08" height="19.38" rx=".62" ry=".62"/>
    <path class="cls-3" d="M121.94,172.2c.21.72.07,1.09-.4,1.12-5.56.35-11.17.46-16.84.32-.48,0-.62-.29-.43-.88.09-.29.37-.49.68-.5l16.99-.06Z"/>
    <path class="cls-5" d="M369.35,172.63c-.12.54-.03.81.27.82,5.87.08,11.74.28,17.61.59h0c-5.47.62-10.91.23-17.28.25-.35,0-.64.29-.64.64v14.36c0,.35.23.65.56.73.96.24,1.95.31,2.96.21-.12.36.33.67,1.35.93l-4.3.21c-.3.01-.54.26-.54.56l-.08,21.71-.24-17.12c0-.07-.05-.12-.12-.12,0,0-.01,0-.02,0-.07,0-.13.07-.12.14,0,0,0,0,0,.01.11.67,0,1.31-.32,1.92l-.19-6.74c-.01-.29-.25-.52-.54-.53l-12.06-.12,8.14-.19c.13,0,.23-.1.23-.23h0c0-.13-.11-.23-.25-.24l-2.7-.19,6.6-.06c.37,0,.66-.3.66-.66v-14.5c0-.33-.23-.63-.55-.71-.69-.17-1.4-.22-2.13-.15.19-.27.25-.58.18-.92.76,0,1.51-.03,2.26-.11.46-.05.63-.39.51-1.01.28.28.53.45.75.52Z"/>
    <path class="cls-2" d="M153.51,173.64c-6.74.37-13.46.2-20.17-.53,2.07-.22,2.64-.39,1.72-.52l17.94-.07c.36,0,.65.29.65.65,0,.05,0,.11-.02.16-.03.1-.07.2-.12.31Z"/>
    <path class="cls-4" d="M209.37,173.72l-6.21-.02c-.23-.3-.29-.6-.19-.91.06-.19.23-.32.43-.32h5.79c.2,0,.38.13.44.32.11.34.02.65-.26.93Z"/>
    <path class="cls-4" d="M372.83,190.23c-1.01.1-2,.03-2.96-.21-.33-.08-.56-.38-.56-.73v-14.36c0-.35.29-.64.64-.64,6.37-.02,11.81.37,17.28-.24h0c-5.87-.32-11.74-.52-17.61-.6-.3,0-.39-.28-.27-.82l17.19-.29c.68-.02,1.25.53,1.27,1.21,0,.01,0,.02,0,.03v16.2c0,.29-.23.52-.52.52h0l-14.46-.07Z"/>
    <path class="cls-4" d="M444.25,173.09c-1.39.79-3.22.99-5.49.6-.51.15-.92.1-1.22-.17-.17-.14-.19-.39-.05-.56.06-.07.15-.12.24-.14,2.17-.43,4.34-.34,6.52.27Z"/>
    <path class="cls-2" d="M444.27,174.38l-5.17-.05-.34-.64c2.27.39,4.1.19,5.49-.6.17.63.17,1.06.02,1.29Z"/>
    <rect class="cls-3" x="45.76" y="178.84" width="16.46" height="6.28" rx=".96" ry=".96" transform="translate(-128.37 234.69) rotate(-89.6)"/>
    <path class="cls-2" d="M209.37,173.72c.06.12.06.25.01.39l-6.2.05c-.11-.15-.12-.31-.02-.46l6.21.02Z"/>
    <rect class="cls-4" x="262.32" y="174.15" width="44.12" height="16.08" rx=".47" ry=".47"/>
    <rect class="cls-4" x="466.24" y="174.14" width="14.14" height="16.08" rx=".41" ry=".41"/>
    <rect class="cls-4" x="613.92" y="174.13" width="60.96" height="16.08" rx=".5" ry=".5"/>
    <rect class="cls-4" x="811.58" y="174.15" width="47.18" height="16.08" rx=".37" ry=".37"/>
    <path class="cls-3" d="M104.19,174.25l17.65.5c.32,0,.57.27.57.59v14.02c0,.31-.24.56-.55.57l-16.97.47c-.58.24-.88,0-.9-.73-.06-2.5,0-7.64.2-15.42Z"/>
    <path class="cls-4" d="M153.38,174.34c.29-.03.43.1.42.39-.05,5.07-.03,10.11.06,15.13,0,.18-.14.33-.32.34,0,0,0,0-.01,0l-25.96-.04h-3.1c-.31,0-.55-.25-.55-.56v-14.68c0-.33.26-.59.59-.59h28.87Z"/>
    <path class="cls-4" d="M203.18,174.16l6.2-.05c.25.21.38.41.38.6.05,2.05.1,6.98.13,14.77,0,.33-.27.59-.6.59h-5.76c-.31,0-.57-.25-.57-.56,0,0,0,0,0,0l.22-15.34Z"/>
    <rect class="cls-4" x="232.43" y="174.14" width="10.64" height="16" rx=".52" ry=".52" transform="translate(-1.27 1.66) rotate(-.4)"/>
    <path class="cls-4" d="M365.65,174.15c.73-.07,1.44-.02,2.13.15.32.08.55.38.55.71v14.5c0,.36-.29.65-.66.66l-6.6.06h-34.79c-.41,0-.74-.33-.74-.74v-14.58c0-.41.33-.74.73-.74l39.38-.02Z"/>
    <path class="cls-4" d="M439.1,174.33l5.17.05-.05,15c0,.38-.3.68-.68.68h-5.88c-.34,0-.62-.27-.62-.61v-14.41c0-.35.23-.66.56-.77.42-.13.92-.11,1.5.06Z"/>
    <rect class="cls-4" x="512.41" y="174.16" width="39.52" height="16.08" rx=".55" ry=".55"/>
    <rect class="cls-4" x="552.75" y="174.13" width="28.02" height="16.1" rx=".63" ry=".63"/>
    <rect class="cls-4" x="708.18" y="174.15" width="12.08" height="16.08" rx=".58" ry=".58" transform="translate(-.32 1.25) rotate(-.1)"/>
    <path class="cls-3" d="M105.16,191.17l16.74.26c.36,0,.65.3.65.66v35.17c0,1.18-.91,2.16-2.09,2.23-6.96.44-13.71-.1-23.89.03-9.74.12-18.06-.28-28.18.12-2.11.09-3.96-.56-5.54-1.95-.12-.11-.19-.26-.19-.42v-34.38c0-.27-.16-.5-.41-.59l-.29-.1c-.26.01-.47.22-.48.48-.42,12.48-.27,24.26.45,35.34.06.94-.65,1.75-1.6,1.81-.05,0-.1,0-.14,0-11.73-.3-22.65-.28-32.78.05-1.47.05-5.46-.11-11.98-.47-3.09-.17-7.16-.03-12.2.42-.94.09-1.77-.61-1.86-1.55,0-.05,0-.1,0-.16v-35.86c0-.48.39-.87.87-.87h0l36.19-.08,66.74-.14Z"/>
    <path class="cls-4" d="M185.57,230.49v-38.02c-.17-.31-.19-.59-.07-.84.13-.29.37-.44.7-.44,19.8.07,39.42.05,58.87-.08.34,0,.62.28.62.62v38.22c0,.24-.19.43-.43.43l-59.69.11Z"/>
    <rect class="cls-4" x="491.41" y="191.11" width="60.52" height="39.3" rx=".53" ry=".53"/>
    <path class="cls-4" d="M674.3,230.4h-60.08c-.12,0-.21-.09-.21-.21v-38.83c0-.12.09-.21.21-.21h121.69c.12,0,.21.09.21.21h0v38.83c0,.12-.09.21-.21.21h-60.4c-.12,0-.21-.09-.21-.21v-38.2c0-.12-.09-.21-.21-.21h-.37c-.12,0-.21.09-.21.21v38.2c0,.12-.09.21-.21.21Z"/>
    <path class="cls-4" d="M858.82,222.68l.02,7.01c0,.34-.27.62-.61.63,0,0,0,0-.01,0l-12.15.04-47.23.02c-.29,0-.53-.24-.53-.53v-38.14c0-.33.27-.59.6-.59h59.35c.28,0,.5.22.5.5l.06,31.06Z"/>
    <path class="cls-4" d="M127.84,191.29l56.15.03c.11,0,.22.05.29.14.19.23.25.57.2,1.03l-.04,37.86-48.6.04h-11.37c-.32,0-.58-.26-.58-.58v-37.86c0-.31.24-.55.55-.56l3.4-.1Z"/>
    <path class="cls-4" d="M355.65,191.08l12.06.12c.29,0,.53.24.54.53l.19,6.74.03,31.43c0,.3-.24.54-.54.54h-59.17c-.43,0-.77-.34-.77-.77h0v-37.6c0-.15-.12-.28-.28-.28-.01,0-.03,0-.04,0l-.32.03c-.06,0-.11.07-.11.13l-.04,37.74c0,.41-.34.75-.75.75h-59.09c-.54,0-.98-.44-.98-.98,0-.01,0-.02,0-.03.38-11.93.38-23.31,0-34.14,0-.11-.11-.83-.3-2.17-.19-1.33.4-2,1.77-2,35.95,0,71.88-.02,107.79-.04Z"/>
    <path class="cls-4" d="M374.18,191.16l54.68.08c.31,0,.57.26.57.58h0v37.91c0,.37-.3.67-.67.67h-58.95c-.31,0-.56-.26-.56-.57h0v-16.19s.09-21.71.09-21.71c0-.3.24-.55.54-.56l4.3-.21Z"/>
    <rect class="cls-4" x="430.35" y="191.24" width="60.22" height="39.14" rx=".46" ry=".46"/>
    <rect class="cls-4" x="552.74" y="191.14" width="60.38" height="39.26" rx=".48" ry=".48"/>
    <rect class="cls-4" x="747.59" y="180.58" width="39.2" height="60.42" rx=".52" ry=".52" transform="translate(555.06 977.61) rotate(-89.9)"/>
    <path class="cls-5" d="M185.57,192.47v38.02c-.43.04-.8,0-1.13-.14l.04-37.86,1.09-.02Z"/>
    <path class="cls-5" d="M859.52,222.38l.1,8.33c0,.41-.33.75-.74.76-.01,0-.02,0-.03,0l-12.69-.21c.11-.18.08-.48-.09-.9l12.15-.04c.34,0,.62-.28.62-.62,0,0,0,0,0-.01l-.02-7.01c.09.07.17.13.23.18.09.06.21.03.27-.05,0,0,0-.01,0-.02l.19-.41Z"/>
    <path class="cls-2" d="M78.42,231.33l-61.45-.06,61.45.06Z"/>
  </g>
</svg>